<svg width="500" height="500" viewBox="0 0 500 500" fill="none" xmlns="http://www.w3.org/2000/svg">
<g clip-path="url(#clip0_24_650)">
<path d="M500 -0.375H0V499.625H500V-0.375Z" fill="#C9C9C9"/>
<path d="M390.418 243.685C387.122 254.347 382.295 264.436 375.941 273.755C358.317 299.606 330.674 316.466 303.803 317.758C301.394 317.874 299.038 317.93 296.738 317.93C255.532 317.931 231.36 299.94 209.897 283.968C194.862 272.78 181.88 263.118 165.129 260.942C149.765 258.948 138.455 263.72 129.368 267.555C120.915 271.122 114.136 274.241 117.446 281.739C117.63 282.154 117.656 282.214 117.765 282.463C129.612 306.882 148.132 327.458 170.953 341.834C177.665 345.13 188.625 348.58 202.506 346.077C220.127 342.899 246.59 332.277 263.891 334.544C286.943 337.563 290.251 347.839 304.227 349.442C307.812 349.854 312.394 348.462 316.51 346.708C354.935 325.943 382.885 288.284 390.418 243.685Z" fill="#DEDEE0"/>
<path d="M286.057 349.155C280.433 345.853 274.618 342.439 263.053 340.925C252.49 339.54 236.78 343.84 222.92 347.631C216.019 349.52 209.499 351.303 203.703 352.4C200.162 353.072 196.808 353.394 193.641 353.463C210.395 360.252 228.706 364 247.894 364C263.617 364 278.748 361.481 292.92 356.84C296.057 355.496 290.163 351.568 286.057 349.155Z" fill="#3CA6B6"/>
<path d="M383.861 170.249C379.307 157.664 373.312 146.22 365.639 135.537C365.121 134.884 364.307 134.948 363.949 135.102C360.576 136.558 367.248 148.522 365.53 153.892C363.785 159.373 352.459 165.792 355.581 180.229C356.39 183.971 358.278 186.036 360.949 188.06C355.824 184.542 344.77 185.951 341.633 186.916C333.659 189.159 327.371 196.538 326.869 204.999C326.498 211.256 314.351 212.913 314.908 216.302C315.199 218.076 327.489 220.027 338.082 213.472C349.072 206.672 364.247 207.492 367.486 214.718C372.533 225.977 363.003 238.622 353.282 243.373C339.715 250.003 326.112 248.7 311.954 243.771C303.154 239.06 292.878 228.661 301.704 204.251C304.667 196.051 310.425 183.07 298.464 184.814C290.892 185.918 273.395 196.637 256.046 217.064C252.629 215.53 249.161 214.068 245.635 212.722C226.856 205.552 202.277 200.263 172.126 205.496C135.212 211.903 109.377 244.65 109.004 257.958C108.907 261.416 110.723 263.594 110.746 263.614C119.219 270.84 135.223 250.564 165.957 254.556C203.171 259.389 222.828 297.343 269.741 308.444C276.053 314.938 281.765 322.325 283.592 325.371C286.909 330.833 293.603 341.663 298.029 340.587C307.056 338.395 310.283 323.761 309.746 310.709C354.971 304.093 406.23 249.762 383.861 170.249Z" fill="#363344"/>
<path d="M181.029 241.904C181.863 244.688 196.825 250.929 200.699 253.302C205.247 256.086 213.079 261.591 216.589 255.124C221.324 246.402 208.008 238.138 199.038 237.142C190.338 236.175 179.534 236.921 181.029 241.904Z" fill="white"/>
</g>
<defs>
<clipPath id="clip0_24_650">
<rect width="500" height="500" fill="white"/>
</clipPath>
</defs>
</svg>
