<svg width="64" height="53" viewBox="0 0 64 53" fill="none" xmlns="http://www.w3.org/2000/svg">
<path d="M63.9999 24.717C63.2503 27.1418 62.1526 29.4363 60.7077 31.5558C56.6995 37.4347 50.4131 41.2691 44.3019 41.5627C43.7542 41.5891 43.2184 41.6018 42.6953 41.6018C33.3241 41.6021 27.8269 37.5105 22.9458 33.8783C19.5267 31.3339 16.5743 29.1365 12.7648 28.6418C9.27067 28.1883 6.69847 29.2735 4.63197 30.1456C2.7097 30.9568 1.168 31.6661 1.92075 33.3715C1.96245 33.4659 1.96854 33.4795 1.99315 33.536C4.68758 39.0893 8.89937 43.7689 14.0892 47.0382C15.6156 47.7877 18.1081 48.5724 21.2651 48.0032C25.2724 47.2803 31.2906 44.8648 35.2252 45.3803C40.4678 46.0668 41.22 48.4038 44.3984 48.7684C45.2137 48.862 46.2557 48.5454 47.1918 48.1466C55.9305 43.4242 62.2867 34.8599 63.9999 24.717Z" fill="#DEDEE0"/>
<path d="M40.2663 48.7032C38.9873 47.9522 37.6648 47.1757 35.0347 46.8313C32.6325 46.5165 29.0596 47.4943 25.9076 48.3565C24.3381 48.786 22.8555 49.1915 21.5374 49.4412C20.7319 49.5938 19.9693 49.6671 19.249 49.6827C23.0591 51.2268 27.2234 52.0791 31.5872 52.0791C35.163 52.0791 38.6041 51.5062 41.8271 50.4508C42.5404 50.1453 41.2 49.2518 40.2663 48.7032Z" fill="#3CA6B6"/>
<path d="M62.5089 8.01644C61.4732 5.15432 60.1099 2.55172 58.3649 0.122015C58.247 -0.0262748 58.062 -0.0117921 57.9806 0.0232531C57.2133 0.354299 58.7307 3.07508 58.34 4.29644C57.9432 5.54301 55.3675 7.00274 56.0774 10.286C56.2613 11.1369 56.6909 11.6067 57.2982 12.0669C56.1327 11.2669 53.6188 11.5873 52.9054 11.8068C51.092 12.3169 49.6618 13.995 49.5477 15.9193C49.4634 17.3422 46.701 17.719 46.8275 18.4897C46.8939 18.8932 49.6888 19.3369 52.0979 17.8462C54.5971 16.2996 58.0484 16.4861 58.7849 18.1294C59.9327 20.69 57.7654 23.5658 55.5546 24.6461C52.4692 26.1539 49.3757 25.8576 46.1559 24.7367C44.1545 23.6654 41.8175 21.3003 43.8247 15.749C44.4986 13.8843 45.808 10.9321 43.0878 11.3286C41.366 11.5797 37.3868 14.0176 33.4412 18.6629C32.6641 18.3142 31.8754 17.9817 31.0734 17.6756C26.8029 16.045 21.213 14.8421 14.356 16.0322C5.96113 17.4893 0.0857109 24.9366 0.000849514 27.9632C-0.0211623 28.7496 0.391848 29.2448 0.397061 29.2495C2.32396 30.8928 5.96374 26.2816 12.9531 27.1893C21.4163 28.2885 25.8868 36.92 36.5558 39.4447C37.9912 40.9215 39.2902 42.6014 39.7058 43.2942C40.46 44.5364 41.9823 46.9994 42.9891 46.7546C45.042 46.2562 45.7759 42.9281 45.6537 39.9597C55.9387 38.455 67.596 26.0992 62.5089 8.01644Z" fill="#363344"/>
<path d="M16.3809 24.3121C16.5706 24.9452 19.9732 26.3644 20.8542 26.9043C21.8885 27.5374 23.6697 28.7892 24.4679 27.3185C25.5448 25.3351 22.5164 23.4557 20.4765 23.2292C18.4981 23.0091 16.0409 23.1788 16.3809 24.3121Z" fill="white"/>
</svg>
